<svg xmlns="http://www.w3.org/2000/svg" width="60" height="60">
  <g fill="none" stroke="#C8960C" stroke-width="0.8">
    <polygon points="30,10 33.2,22.3 44.1,15.9 37.7,26.8 50,30 37.7,33.2 44.1,44.1 33.2,37.7 30,50 26.8,37.7 15.9,44.1 22.3,33.2 10,30 22.3,26.8 15.9,15.9 26.8,22.3"/>
    <line x1="30" y1="10" x2="30" y2="0"/>
    <line x1="50" y1="30" x2="60" y2="30"/>
    <line x1="30" y1="50" x2="30" y2="60"/>
    <line x1="10" y1="30" x2="0"  y2="30"/>
    <line x1="15.9" y1="15.9" x2="0"  y2="0"/>
    <line x1="44.1" y1="15.9" x2="60" y2="0"/>
    <line x1="44.1" y1="44.1" x2="60" y2="60"/>
    <line x1="15.9" y1="44.1" x2="0"  y2="60"/>
  </g>
</svg>
